<?xml version="1.0" standalone="no"?>
<!DOCTYPE svg PUBLIC "-//W3C//DTD SVG 20010904//EN"
 "http://www.w3.org/TR/2001/REC-SVG-20010904/DTD/svg10.dtd">
<svg version="1.0" xmlns="http://www.w3.org/2000/svg"
 width="700.000000pt" height="700.000000pt" viewBox="0 0 700.000000 700.000000"
 preserveAspectRatio="xMidYMid meet">
<metadata>
Created by potrace 1.14, written by Peter Selinger 2001-2017
</metadata>
<g transform="translate(0.000000,700.000000) scale(0.100000,-0.100000)"
fill="#000000" stroke="none">
<path d="M3280 6994 c-19 -2 -84 -9 -145 -14 -578 -56 -1180 -283 -1660 -625
-237 -169 -531 -446 -709 -670 -416 -521 -673 -1147 -748 -1820 -17 -155 -17
-575 0 -730 52 -469 197 -931 418 -1327 289 -521 732 -983 1239 -1294 439
-269 920 -432 1460 -496 145 -17 576 -17 730 0 822 91 1556 447 2131 1034 203
206 348 390 487 618 274 449 432 913 499 1465 16 135 16 591 0 730 -101 848
-447 1557 -1043 2141 -555 542 -1249 874 -2029 970 -117 15 -553 27 -630 18z
m570 -1069 c620 -93 1174 -411 1563 -896 713 -891 715 -2159 4 -3053 -391
-490 -941 -805 -1577 -903 -84 -13 -175 -17 -340 -17 -246 0 -359 12 -575 64
-895 214 -1597 920 -1809 1820 -23 96 -56 294 -56 334 0 15 148 16 1815 16
l1815 0 0 210 0 210 -1815 0 c-1667 0 -1815 1 -1815 16 0 40 33 238 56 334
213 905 919 1611 1824 1824 98 23 264 50 370 60 94 8 439 -3 540 -19z"/>
</g>
</svg>
